<svg xmlns="http://www.w3.org/2000/svg" width="1440" height="923.972" viewBox="0 0 1440 923.972">
  <metadata><?xpacket begin="﻿" id="W5M0MpCehiHzreSzNTczkc9d"?>
<x:xmpmeta xmlns:x="adobe:ns:meta/" x:xmptk="Adobe XMP Core 5.6-c142 79.160924, 2017/07/13-01:06:39        ">
   <rdf:RDF xmlns:rdf="http://www.w3.org/1999/02/22-rdf-syntax-ns#">
      <rdf:Description rdf:about=""/>
   </rdf:RDF>
</x:xmpmeta>
                                                                                                    
                                                                                                    
                                                                                                    
                                                                                                    
                                                                                                    
                                                                                                    
                                                                                                    
                                                                                                    
                                                                                                    
                                                                                                    
                                                                                                    
                                                                                                    
                                                                                                    
                                                                                                    
                                                                                                    
                                                                                                    
                                                                                                    
                                                                                                    
                                                                                                    
                                                                                                    
                           
<?xpacket end="w"?></metadata>
<defs>
    <style>
      .cls-1 {
        fill: #fff;
        fill-rule: evenodd;
      }
    </style>
  </defs>
  <path class="cls-1" d="M-467.407,1035.16l7.941-209.481L-448.348,990.5l6.353,25.118,4.765-2.79,6.353-188.546,6.353,4.186,12.706,100.624,4.765-34.891,12.706,57.221,9.53-128.4,7.941,107.463,11.118-166.08,4.765-5.582,6.353-53.034,4.765,25.121,6.353,11.165,11.118,92.112,25.413-101.881,4.764,26.517,7.942,1.395,7.941-9.769,6.353-32.1,7.942-12.56,3.176-47.452,6.353,2.791,6.353-61.408,6.354,40.474,6.353-37.683,6.353,103.278,11.118-43.265,6.353,9.769,6.353,30.7,6.353-22.33,3.177-8.374,4.764,37.682,9.53,9.77,7.941-48.847,7.942,18.143,7.941-5.583,15.883-101.881,6.353,5.582,6.353-2.791,6.353-34.891,4.765,2.792,4.765-29.309,7.941,5.583,3.177,19.539,6.353-5.583,6.353,22.331,6.353-29.309,4.765,15.352,4.765,37.682,7.941-55.825,6.353,114.442,3.177-46.056,7.941-32.1,4.765-5.582,6.353,33.5,6.353-2.791,9.53,40.473,7.941-47.452,4.765,44.661,6.353,4.187,6.353-2.792,9.53-44.66,6.353-1.4,6.353-12.56,7.941,8.374,4.765-12.561,4.765-48.847,12.706-34.891,6.353-4.187,7.941,6.978,1.588,19.539,7.941-37.682L77.371,511.8h6.353l6.353,43.265,6.353-30.7,4.765,20.935,6.353-4.187,9.529-30.7,6.353,19.539,12.707,107.463,12.706-11.165,6.353,9.77,11.118-40.474,4.765-25.121L177.433,576l6.353-50.242L188.551,576l6.353,18.144,6.353-26.517,4.765,47.451,6.353-5.582L217.14,576l11.118,90.717,15.883-100.486,7.941-4.187,6.353,18.143,22.236-135.376,7.941,13.956,6.353-75.364,9.53,22.33L317.2,518.777l6.353-41.868,6.353,104.672,6.354,9.77,4.764-53.035,6.354,12.561,4.764-9.769,4.765,113.046,6.353-19.539,6.353,37.682,6.354-23.726,4.764-46.056,6.353-9.769,6.354,6.978,9.529-27.912,9.53,1.395,4.765,26.517,4.765,4.187,6.353-32.1,7.941-18.144,4.765,19.539,4.765,30.7,4.765-36.286,6.353,22.33,7.941-8.374,3.177,15.352,9.529-16.748,3.177,9.77,7.941-25.121,3.177,36.286,4.765-15.352,7.941,51.638,4.765,19.539,6.353-34.891,6.353,25.122,4.765-58.131,6.353,5.582L536,505l9.913,23.671,6.353-6.978,4.765,64.2,6.353,16.748,6.353-65.11,6.353,4.188,3.177-53.035,7.941-11.165,4.765-33.495,4.765,25.121,6.353,6.978,7.941-20.934L622.15,515.2l4.765,34.891,7.942,4.187,3.176-36.286,9.53,6.978,9.529,23.726,11.118,1.395,4.765,13.956,6.353,6.979,6.353,27.912L696.8,526.365l12.707-9.769,4.764-54.43,6.354-6.978L736.506,556.46l7.942-5.583,6.353-22.33,3.176-72.573,6.353,20.935,6.354-16.748,11.117,44.66,6.354-51.639L790.508,449l11.118,30.7,4.764-92.112,7.942-40.474,6.353-1.395,4.765,30.7,6.353-30.7,6.353-26.517,6.353,12.56,4.765,46.056,11.118,15.352,6.353,44.661,6.353-48.847h6.353L885.8,402.94l6.353-30.7,1.589,26.517,7.941-1.4,6.353-83.738,3.177,51.639,7.941,2.791,4.765-37.682,4.765-19.539,7.941,85.134,6.353-2.792,6.353-16.747,6.353,12.561,6.354,6.978,4.764-11.165,4.765-29.309,7.942,25.122,3.176,26.517,7.942-5.583,3.176-15.352,7.943,4.187,11.12-64.2,6.35,4.187,6.35-11.165,6.36-32.1,6.35,37.682,7.94,9.77,7.94-11.165,11.12,57.221,6.35-6.979,9.53-36.286,7.94-4.187,9.53-36.286,14.3,48.847,4.76-13.957,14.3,8.374,7.94-26.517,7.94,2.792,6.35,18.143,4.77-4.187,7.94,2.791,3.18-19.539,9.53,5.583,7.94-11.165,4.76,11.165,6.35-6.979,11.12,8.374,3.18,15.352,6.35,6.979,11.12-19.539,9.53-58.617,7.94,36.287,11.12-58.617,6.35-16.748,9.53,34.891,9.53-15.352,7.94-50.243,7.94,5.583,4.77-23.726,6.35-6.978L1316.23,128l3.17,26.517,9.53,4.187,4.77-9.77,6.35,6.979,4.77,33.495,6.35-51.639,6.35,6.978,6.36,79.551,14.29,55.826,7.94,9.77,4.77,18.143,6.35-26.517,7.94,19.539,7.94,6.978,3.18,8.374,6.35-99.144,11.12-6.978,4.76,62.8,7.95-9.77,4.76,29.309,6.35,4.186,3.18-15.352,9.53,1.4,7.94-68.386,9.53,8.374,4.77-27.913,4.76,8.374,6.35-36.287,4.77,12.561,7.94,5.583,3.18,25.121,6.35-34.891,4.76,8.374,14.3-72.573,14.29,39.078,7.95,4.187,7.94,65.594,6.35-5.582L1618,239.6V915H-631Z" transform="translate(0 -111.188)"/>
</svg>
